<svg xmlns="http://www.w3.org/2000/svg" width="1400" height="1000" viewBox="0 0 1400 1000" role="img" aria-labelledby="modules-title modules-desc">
  <title id="modules-title">DARAK business modules grid</title>
  <desc id="modules-desc">A modern grid showing the major DARAK business modules.</desc>
  
  <defs>
    <linearGradient id="modules-bg" x1="0" x2="1" y1="0" y2="1">
      <stop offset="0" stop-color="#07111f"/>
      <stop offset="0.48" stop-color="#0b1628"/>
      <stop offset="1" stop-color="#0e2037"/>
    </linearGradient>
    <linearGradient id="modules-panel" x1="0" x2="1" y1="0" y2="1">
      <stop offset="0" stop-color="#172a43"/>
      <stop offset="1" stop-color="#0f1d31"/>
    </linearGradient>
    <linearGradient id="modules-accent" x1="0" x2="1" y1="0" y2="0">
      <stop offset="0" stop-color="#5b8cff"/>
      <stop offset="1" stop-color="#45e6a8"/>
    </linearGradient>
    <linearGradient id="modules-accent-soft" x1="0" x2="1" y1="0" y2="1">
      <stop offset="0" stop-color="#5b8cff" stop-opacity="0.22"/>
      <stop offset="1" stop-color="#45e6a8" stop-opacity="0.08"/>
    </linearGradient>
    <radialGradient id="modules-glow-a" cx="26%" cy="18%" r="52%">
      <stop offset="0" stop-color="#5b8cff" stop-opacity="0.28"/>
      <stop offset="1" stop-color="#5b8cff" stop-opacity="0"/>
    </radialGradient>
    <radialGradient id="modules-glow-b" cx="82%" cy="72%" r="48%">
      <stop offset="0" stop-color="#45e6a8" stop-opacity="0.22"/>
      <stop offset="1" stop-color="#45e6a8" stop-opacity="0"/>
    </radialGradient>
    <filter id="modules-shadow" x="-20%" y="-20%" width="140%" height="150%">
      <feDropShadow dx="0" dy="18" stdDeviation="18" flood-color="#000814" flood-opacity="0.42"/>
    </filter>
    <filter id="modules-soft-shadow" x="-20%" y="-20%" width="140%" height="150%">
      <feDropShadow dx="0" dy="10" stdDeviation="9" flood-color="#000814" flood-opacity="0.32"/>
    </filter>
    <pattern id="modules-grid" width="46" height="46" patternUnits="userSpaceOnUse">
      <path d="M46 0H0V46" fill="none" stroke="#2b4564" stroke-opacity="0.22" stroke-width="1"/>
    </pattern>
    <style>
      .label { font-family: Inter, Segoe UI, Arial, sans-serif; letter-spacing: 0; }
      .mono { font-family: Cascadia Mono, Consolas, monospace; letter-spacing: 0; }
    </style>
  </defs>
  <rect width="1400" height="1000" rx="34" fill="url(#modules-bg)"/>
  <rect width="1400" height="1000" rx="34" fill="url(#modules-grid)" opacity="0.68"/>
  <rect width="1400" height="1000" rx="34" fill="url(#modules-glow-a)"/>
  <rect width="1400" height="1000" rx="34" fill="url(#modules-glow-b)"/>
  <path d="M0 908C230 850 375 958 580 912C845 852 1004 974 1400 884" fill="none" stroke="url(#modules-accent)" stroke-width="2" stroke-opacity="0.38"/>
  <g class="label">
  <text x="80" y="96" fill="#f7fbff" font-size="46" font-weight="800" text-anchor="start" >Business Modules</text>
  <text x="82" y="136" fill="#9fb4ca" font-size="21" font-weight="500" text-anchor="start" >A broad residential operations domain, presented as production-ready API capability.</text>
  <rect x="1042" y="70" width="278" height="48" rx="24" fill="#0f2338" stroke="url(#modules-accent)" stroke-opacity="0.58"/>
  <text x="1181" y="101" fill="#f7fbff" font-size="17" font-weight="800" text-anchor="middle" class="mono">DARAK BACKEND</text>
  <g opacity="1" filter="url(#modules-soft-shadow)">
    <rect x="72" y="178" width="302" height="68" rx="18" fill="#0f2237" stroke="#28445f" stroke-opacity="0.82"/>
    <rect x="72" y="178" width="302" height="5" rx="18" fill="#2dd4ff"/>
  </g><circle cx="110" cy="218" r="17" fill="#2dd4ff" fill-opacity="0.14" stroke="#2dd4ff" stroke-opacity="0.62"/><path d="M102 218h16M110 210v16" stroke="#2dd4ff" stroke-width="2.4" stroke-linecap="round"/><text x="142" y="213" fill="#f7fbff" font-size="20" font-weight="750" text-anchor="start" ><tspan x="142" dy="0" text-anchor="start">Authentication</tspan></text>
  <g opacity="1" filter="url(#modules-soft-shadow)">
    <rect x="400" y="178" width="302" height="68" rx="18" fill="#0f2237" stroke="#28445f" stroke-opacity="0.82"/>
    <rect x="400" y="178" width="302" height="5" rx="18" fill="#5b8cff"/>
  </g><circle cx="438" cy="218" r="17" fill="#5b8cff" fill-opacity="0.14" stroke="#5b8cff" stroke-opacity="0.62"/><path d="M430 218h16M438 210v16" stroke="#5b8cff" stroke-width="2.4" stroke-linecap="round"/><text x="470" y="213" fill="#f7fbff" font-size="20" font-weight="750" text-anchor="start" ><tspan x="470" dy="0" text-anchor="start">Compound</tspan><tspan x="470" dy="23" text-anchor="start">Management</tspan></text>
  <g opacity="1" filter="url(#modules-soft-shadow)">
    <rect x="728" y="178" width="302" height="68" rx="18" fill="#0f2237" stroke="#28445f" stroke-opacity="0.82"/>
    <rect x="728" y="178" width="302" height="5" rx="18" fill="#45e6a8"/>
  </g><circle cx="766" cy="218" r="17" fill="#45e6a8" fill-opacity="0.14" stroke="#45e6a8" stroke-opacity="0.62"/><path d="M758 218h16M766 210v16" stroke="#45e6a8" stroke-width="2.4" stroke-linecap="round"/><text x="798" y="213" fill="#f7fbff" font-size="20" font-weight="750" text-anchor="start" ><tspan x="798" dy="0" text-anchor="start">Buildings</tspan></text>
  <g opacity="1" filter="url(#modules-soft-shadow)">
    <rect x="1056" y="178" width="302" height="68" rx="18" fill="#0f2237" stroke="#28445f" stroke-opacity="0.82"/>
    <rect x="1056" y="178" width="302" height="5" rx="18" fill="#f8bf4c"/>
  </g><circle cx="1094" cy="218" r="17" fill="#f8bf4c" fill-opacity="0.14" stroke="#f8bf4c" stroke-opacity="0.62"/><path d="M1086 218h16M1094 210v16" stroke="#f8bf4c" stroke-width="2.4" stroke-linecap="round"/><text x="1126" y="213" fill="#f7fbff" font-size="20" font-weight="750" text-anchor="start" ><tspan x="1126" dy="0" text-anchor="start">Units</tspan></text>
  <g opacity="1" filter="url(#modules-soft-shadow)">
    <rect x="72" y="264" width="302" height="68" rx="18" fill="#0f2237" stroke="#28445f" stroke-opacity="0.82"/>
    <rect x="72" y="264" width="302" height="5" rx="18" fill="#a78bfa"/>
  </g><circle cx="110" cy="304" r="17" fill="#a78bfa" fill-opacity="0.14" stroke="#a78bfa" stroke-opacity="0.62"/><path d="M102 304h16M110 296v16" stroke="#a78bfa" stroke-width="2.4" stroke-linecap="round"/><text x="142" y="299" fill="#f7fbff" font-size="20" font-weight="750" text-anchor="start" ><tspan x="142" dy="0" text-anchor="start">Residents</tspan></text>
  <g opacity="1" filter="url(#modules-soft-shadow)">
    <rect x="400" y="264" width="302" height="68" rx="18" fill="#0f2237" stroke="#28445f" stroke-opacity="0.82"/>
    <rect x="400" y="264" width="302" height="5" rx="18" fill="#ff6b7f"/>
  </g><circle cx="438" cy="304" r="17" fill="#ff6b7f" fill-opacity="0.14" stroke="#ff6b7f" stroke-opacity="0.62"/><path d="M430 304h16M438 296v16" stroke="#ff6b7f" stroke-width="2.4" stroke-linecap="round"/><text x="470" y="299" fill="#f7fbff" font-size="20" font-weight="750" text-anchor="start" ><tspan x="470" dy="0" text-anchor="start">Occupancy</tspan></text>
  <g opacity="1" filter="url(#modules-soft-shadow)">
    <rect x="728" y="264" width="302" height="68" rx="18" fill="#0f2237" stroke="#28445f" stroke-opacity="0.82"/>
    <rect x="728" y="264" width="302" height="5" rx="18" fill="#2dd4ff"/>
  </g><circle cx="766" cy="304" r="17" fill="#2dd4ff" fill-opacity="0.14" stroke="#2dd4ff" stroke-opacity="0.62"/><path d="M758 304h16M766 296v16" stroke="#2dd4ff" stroke-width="2.4" stroke-linecap="round"/><text x="798" y="299" fill="#f7fbff" font-size="20" font-weight="750" text-anchor="start" ><tspan x="798" dy="0" text-anchor="start">Billing</tspan></text>
  <g opacity="1" filter="url(#modules-soft-shadow)">
    <rect x="1056" y="264" width="302" height="68" rx="18" fill="#0f2237" stroke="#28445f" stroke-opacity="0.82"/>
    <rect x="1056" y="264" width="302" height="5" rx="18" fill="#5b8cff"/>
  </g><circle cx="1094" cy="304" r="17" fill="#5b8cff" fill-opacity="0.14" stroke="#5b8cff" stroke-opacity="0.62"/><path d="M1086 304h16M1094 296v16" stroke="#5b8cff" stroke-width="2.4" stroke-linecap="round"/><text x="1126" y="299" fill="#f7fbff" font-size="20" font-weight="750" text-anchor="start" ><tspan x="1126" dy="0" text-anchor="start">Payments</tspan></text>
  <g opacity="1" filter="url(#modules-soft-shadow)">
    <rect x="72" y="350" width="302" height="68" rx="18" fill="#0f2237" stroke="#28445f" stroke-opacity="0.82"/>
    <rect x="72" y="350" width="302" height="5" rx="18" fill="#45e6a8"/>
  </g><circle cx="110" cy="390" r="17" fill="#45e6a8" fill-opacity="0.14" stroke="#45e6a8" stroke-opacity="0.62"/><path d="M102 390h16M110 382v16" stroke="#45e6a8" stroke-width="2.4" stroke-linecap="round"/><text x="142" y="385" fill="#f7fbff" font-size="20" font-weight="750" text-anchor="start" ><tspan x="142" dy="0" text-anchor="start">Receipts</tspan></text>
  <g opacity="1" filter="url(#modules-soft-shadow)">
    <rect x="400" y="350" width="302" height="68" rx="18" fill="#0f2237" stroke="#28445f" stroke-opacity="0.82"/>
    <rect x="400" y="350" width="302" height="5" rx="18" fill="#f8bf4c"/>
  </g><circle cx="438" cy="390" r="17" fill="#f8bf4c" fill-opacity="0.14" stroke="#f8bf4c" stroke-opacity="0.62"/><path d="M430 390h16M438 382v16" stroke="#f8bf4c" stroke-width="2.4" stroke-linecap="round"/><text x="470" y="385" fill="#f7fbff" font-size="20" font-weight="750" text-anchor="start" ><tspan x="470" dy="0" text-anchor="start">Ledger</tspan></text>
  <g opacity="1" filter="url(#modules-soft-shadow)">
    <rect x="728" y="350" width="302" height="68" rx="18" fill="#0f2237" stroke="#28445f" stroke-opacity="0.82"/>
    <rect x="728" y="350" width="302" height="5" rx="18" fill="#a78bfa"/>
  </g><circle cx="766" cy="390" r="17" fill="#a78bfa" fill-opacity="0.14" stroke="#a78bfa" stroke-opacity="0.62"/><path d="M758 390h16M766 382v16" stroke="#a78bfa" stroke-width="2.4" stroke-linecap="round"/><text x="798" y="385" fill="#f7fbff" font-size="20" font-weight="750" text-anchor="start" ><tspan x="798" dy="0" text-anchor="start">Rent Contracts</tspan></text>
  <g opacity="1" filter="url(#modules-soft-shadow)">
    <rect x="1056" y="350" width="302" height="68" rx="18" fill="#0f2237" stroke="#28445f" stroke-opacity="0.82"/>
    <rect x="1056" y="350" width="302" height="5" rx="18" fill="#ff6b7f"/>
  </g><circle cx="1094" cy="390" r="17" fill="#ff6b7f" fill-opacity="0.14" stroke="#ff6b7f" stroke-opacity="0.62"/><path d="M1086 390h16M1094 382v16" stroke="#ff6b7f" stroke-width="2.4" stroke-linecap="round"/><text x="1126" y="385" fill="#f7fbff" font-size="20" font-weight="750" text-anchor="start" ><tspan x="1126" dy="0" text-anchor="start">Property Sales</tspan></text>
  <g opacity="1" filter="url(#modules-soft-shadow)">
    <rect x="72" y="436" width="302" height="68" rx="18" fill="#0f2237" stroke="#28445f" stroke-opacity="0.82"/>
    <rect x="72" y="436" width="302" height="5" rx="18" fill="#2dd4ff"/>
  </g><circle cx="110" cy="476" r="17" fill="#2dd4ff" fill-opacity="0.14" stroke="#2dd4ff" stroke-opacity="0.62"/><path d="M102 476h16M110 468v16" stroke="#2dd4ff" stroke-width="2.4" stroke-linecap="round"/><text x="142" y="471" fill="#f7fbff" font-size="20" font-weight="750" text-anchor="start" ><tspan x="142" dy="0" text-anchor="start">Installments</tspan></text>
  <g opacity="1" filter="url(#modules-soft-shadow)">
    <rect x="400" y="436" width="302" height="68" rx="18" fill="#0f2237" stroke="#28445f" stroke-opacity="0.82"/>
    <rect x="400" y="436" width="302" height="5" rx="18" fill="#5b8cff"/>
  </g><circle cx="438" cy="476" r="17" fill="#5b8cff" fill-opacity="0.14" stroke="#5b8cff" stroke-opacity="0.62"/><path d="M430 476h16M438 468v16" stroke="#5b8cff" stroke-width="2.4" stroke-linecap="round"/><text x="470" y="471" fill="#f7fbff" font-size="20" font-weight="750" text-anchor="start" ><tspan x="470" dy="0" text-anchor="start">Visitors</tspan></text>
  <g opacity="1" filter="url(#modules-soft-shadow)">
    <rect x="728" y="436" width="302" height="68" rx="18" fill="#0f2237" stroke="#28445f" stroke-opacity="0.82"/>
    <rect x="728" y="436" width="302" height="5" rx="18" fill="#45e6a8"/>
  </g><circle cx="766" cy="476" r="17" fill="#45e6a8" fill-opacity="0.14" stroke="#45e6a8" stroke-opacity="0.62"/><path d="M758 476h16M766 468v16" stroke="#45e6a8" stroke-width="2.4" stroke-linecap="round"/><text x="798" y="471" fill="#f7fbff" font-size="20" font-weight="750" text-anchor="start" ><tspan x="798" dy="0" text-anchor="start">Guards</tspan></text>
  <g opacity="1" filter="url(#modules-soft-shadow)">
    <rect x="1056" y="436" width="302" height="68" rx="18" fill="#0f2237" stroke="#28445f" stroke-opacity="0.82"/>
    <rect x="1056" y="436" width="302" height="5" rx="18" fill="#f8bf4c"/>
  </g><circle cx="1094" cy="476" r="17" fill="#f8bf4c" fill-opacity="0.14" stroke="#f8bf4c" stroke-opacity="0.62"/><path d="M1086 476h16M1094 468v16" stroke="#f8bf4c" stroke-width="2.4" stroke-linecap="round"/><text x="1126" y="471" fill="#f7fbff" font-size="20" font-weight="750" text-anchor="start" ><tspan x="1126" dy="0" text-anchor="start">Contractors</tspan></text>
  <g opacity="1" filter="url(#modules-soft-shadow)">
    <rect x="72" y="522" width="302" height="68" rx="18" fill="#0f2237" stroke="#28445f" stroke-opacity="0.82"/>
    <rect x="72" y="522" width="302" height="5" rx="18" fill="#a78bfa"/>
  </g><circle cx="110" cy="562" r="17" fill="#a78bfa" fill-opacity="0.14" stroke="#a78bfa" stroke-opacity="0.62"/><path d="M102 562h16M110 554v16" stroke="#a78bfa" stroke-width="2.4" stroke-linecap="round"/><text x="142" y="557" fill="#f7fbff" font-size="20" font-weight="750" text-anchor="start" ><tspan x="142" dy="0" text-anchor="start">Maintenance</tspan></text>
  <g opacity="1" filter="url(#modules-soft-shadow)">
    <rect x="400" y="522" width="302" height="68" rx="18" fill="#0f2237" stroke="#28445f" stroke-opacity="0.82"/>
    <rect x="400" y="522" width="302" height="5" rx="18" fill="#ff6b7f"/>
  </g><circle cx="438" cy="562" r="17" fill="#ff6b7f" fill-opacity="0.14" stroke="#ff6b7f" stroke-opacity="0.62"/><path d="M430 562h16M438 554v16" stroke="#ff6b7f" stroke-width="2.4" stroke-linecap="round"/><text x="470" y="557" fill="#f7fbff" font-size="20" font-weight="750" text-anchor="start" ><tspan x="470" dy="0" text-anchor="start">Preventive</tspan><tspan x="470" dy="23" text-anchor="start">Maintenance</tspan></text>
  <g opacity="1" filter="url(#modules-soft-shadow)">
    <rect x="728" y="522" width="302" height="68" rx="18" fill="#0f2237" stroke="#28445f" stroke-opacity="0.82"/>
    <rect x="728" y="522" width="302" height="5" rx="18" fill="#2dd4ff"/>
  </g><circle cx="766" cy="562" r="17" fill="#2dd4ff" fill-opacity="0.14" stroke="#2dd4ff" stroke-opacity="0.62"/><path d="M758 562h16M766 554v16" stroke="#2dd4ff" stroke-width="2.4" stroke-linecap="round"/><text x="798" y="557" fill="#f7fbff" font-size="20" font-weight="750" text-anchor="start" ><tspan x="798" dy="0" text-anchor="start">SLA</tspan></text>
  <g opacity="1" filter="url(#modules-soft-shadow)">
    <rect x="1056" y="522" width="302" height="68" rx="18" fill="#0f2237" stroke="#28445f" stroke-opacity="0.82"/>
    <rect x="1056" y="522" width="302" height="5" rx="18" fill="#5b8cff"/>
  </g><circle cx="1094" cy="562" r="17" fill="#5b8cff" fill-opacity="0.14" stroke="#5b8cff" stroke-opacity="0.62"/><path d="M1086 562h16M1094 554v16" stroke="#5b8cff" stroke-width="2.4" stroke-linecap="round"/><text x="1126" y="557" fill="#f7fbff" font-size="20" font-weight="750" text-anchor="start" ><tspan x="1126" dy="0" text-anchor="start">Procurement</tspan></text>
  <g opacity="1" filter="url(#modules-soft-shadow)">
    <rect x="72" y="608" width="302" height="68" rx="18" fill="#0f2237" stroke="#28445f" stroke-opacity="0.82"/>
    <rect x="72" y="608" width="302" height="5" rx="18" fill="#45e6a8"/>
  </g><circle cx="110" cy="648" r="17" fill="#45e6a8" fill-opacity="0.14" stroke="#45e6a8" stroke-opacity="0.62"/><path d="M102 648h16M110 640v16" stroke="#45e6a8" stroke-width="2.4" stroke-linecap="round"/><text x="142" y="643" fill="#f7fbff" font-size="20" font-weight="750" text-anchor="start" ><tspan x="142" dy="0" text-anchor="start">Purchase Orders</tspan></text>
  <g opacity="1" filter="url(#modules-soft-shadow)">
    <rect x="400" y="608" width="302" height="68" rx="18" fill="#0f2237" stroke="#28445f" stroke-opacity="0.82"/>
    <rect x="400" y="608" width="302" height="5" rx="18" fill="#f8bf4c"/>
  </g><circle cx="438" cy="648" r="17" fill="#f8bf4c" fill-opacity="0.14" stroke="#f8bf4c" stroke-opacity="0.62"/><path d="M430 648h16M438 640v16" stroke="#f8bf4c" stroke-width="2.4" stroke-linecap="round"/><text x="470" y="643" fill="#f7fbff" font-size="20" font-weight="750" text-anchor="start" ><tspan x="470" dy="0" text-anchor="start">Inventory</tspan></text>
  <g opacity="1" filter="url(#modules-soft-shadow)">
    <rect x="728" y="608" width="302" height="68" rx="18" fill="#0f2237" stroke="#28445f" stroke-opacity="0.82"/>
    <rect x="728" y="608" width="302" height="5" rx="18" fill="#a78bfa"/>
  </g><circle cx="766" cy="648" r="17" fill="#a78bfa" fill-opacity="0.14" stroke="#a78bfa" stroke-opacity="0.62"/><path d="M758 648h16M766 640v16" stroke="#a78bfa" stroke-width="2.4" stroke-linecap="round"/><text x="798" y="643" fill="#f7fbff" font-size="20" font-weight="750" text-anchor="start" ><tspan x="798" dy="0" text-anchor="start">Reports</tspan></text>
  <g opacity="1" filter="url(#modules-soft-shadow)">
    <rect x="1056" y="608" width="302" height="68" rx="18" fill="#0f2237" stroke="#28445f" stroke-opacity="0.82"/>
    <rect x="1056" y="608" width="302" height="5" rx="18" fill="#ff6b7f"/>
  </g><circle cx="1094" cy="648" r="17" fill="#ff6b7f" fill-opacity="0.14" stroke="#ff6b7f" stroke-opacity="0.62"/><path d="M1086 648h16M1094 640v16" stroke="#ff6b7f" stroke-width="2.4" stroke-linecap="round"/><text x="1126" y="643" fill="#f7fbff" font-size="20" font-weight="750" text-anchor="start" ><tspan x="1126" dy="0" text-anchor="start">Documents</tspan></text>
  <g opacity="1" filter="url(#modules-soft-shadow)">
    <rect x="72" y="694" width="302" height="68" rx="18" fill="#0f2237" stroke="#28445f" stroke-opacity="0.82"/>
    <rect x="72" y="694" width="302" height="5" rx="18" fill="#2dd4ff"/>
  </g><circle cx="110" cy="734" r="17" fill="#2dd4ff" fill-opacity="0.14" stroke="#2dd4ff" stroke-opacity="0.62"/><path d="M102 734h16M110 726v16" stroke="#2dd4ff" stroke-width="2.4" stroke-linecap="round"/><text x="142" y="729" fill="#f7fbff" font-size="20" font-weight="750" text-anchor="start" ><tspan x="142" dy="0" text-anchor="start">Notifications</tspan></text>
  <g opacity="1" filter="url(#modules-soft-shadow)">
    <rect x="400" y="694" width="302" height="68" rx="18" fill="#0f2237" stroke="#28445f" stroke-opacity="0.82"/>
    <rect x="400" y="694" width="302" height="5" rx="18" fill="#5b8cff"/>
  </g><circle cx="438" cy="734" r="17" fill="#5b8cff" fill-opacity="0.14" stroke="#5b8cff" stroke-opacity="0.62"/><path d="M430 734h16M438 726v16" stroke="#5b8cff" stroke-width="2.4" stroke-linecap="round"/><text x="470" y="729" fill="#f7fbff" font-size="20" font-weight="750" text-anchor="start" ><tspan x="470" dy="0" text-anchor="start">Audit</tspan></text>
  <g opacity="1" filter="url(#modules-soft-shadow)">
    <rect x="728" y="694" width="302" height="68" rx="18" fill="#0f2237" stroke="#28445f" stroke-opacity="0.82"/>
    <rect x="728" y="694" width="302" height="5" rx="18" fill="#45e6a8"/>
  </g><circle cx="766" cy="734" r="17" fill="#45e6a8" fill-opacity="0.14" stroke="#45e6a8" stroke-opacity="0.62"/><path d="M758 734h16M766 726v16" stroke="#45e6a8" stroke-width="2.4" stroke-linecap="round"/><text x="798" y="729" fill="#f7fbff" font-size="20" font-weight="750" text-anchor="start" ><tspan x="798" dy="0" text-anchor="start">Dashboards</tspan></text>
  <g opacity="1" filter="url(#modules-soft-shadow)">
    <rect x="1056" y="694" width="302" height="68" rx="18" fill="#0f2237" stroke="#28445f" stroke-opacity="0.82"/>
    <rect x="1056" y="694" width="302" height="5" rx="18" fill="#f8bf4c"/>
  </g><circle cx="1094" cy="734" r="17" fill="#f8bf4c" fill-opacity="0.14" stroke="#f8bf4c" stroke-opacity="0.62"/><path d="M1086 734h16M1094 726v16" stroke="#f8bf4c" stroke-width="2.4" stroke-linecap="round"/><text x="1126" y="729" fill="#f7fbff" font-size="20" font-weight="750" text-anchor="start" ><tspan x="1126" dy="0" text-anchor="start">Analytics</tspan></text>
  <g opacity="1" filter="url(#modules-soft-shadow)">
    <rect x="72" y="780" width="302" height="68" rx="18" fill="#0f2237" stroke="#28445f" stroke-opacity="0.82"/>
    <rect x="72" y="780" width="302" height="5" rx="18" fill="#a78bfa"/>
  </g><circle cx="110" cy="820" r="17" fill="#a78bfa" fill-opacity="0.14" stroke="#a78bfa" stroke-opacity="0.62"/><path d="M102 820h16M110 812v16" stroke="#a78bfa" stroke-width="2.4" stroke-linecap="round"/><text x="142" y="815" fill="#f7fbff" font-size="20" font-weight="750" text-anchor="start" ><tspan x="142" dy="0" text-anchor="start">Demo Seed Data</tspan></text>
  <rect x="72" y="914" width="1256" height="1" fill="#34516e" opacity="0.65"/>
  <text x="96" y="946" fill="#9fb4ca" font-size="21" font-weight="600" text-anchor="start" >Designed for commercial demos, buyer review, and backend portfolio inspection.</text>
  <text x="1304" y="946" fill="#f7fbff" font-size="21" font-weight="800" text-anchor="end" >29 modules</text></g>
  </svg>