<svg xmlns="http://www.w3.org/2000/svg" width="1400" height="850" viewBox="0 0 1400 850" role="img" aria-labelledby="overview-title overview-desc">
  <title id="overview-title">DARAK project overview</title>
  <desc id="overview-desc">Project statistics and backend overview infographic.</desc>
  
  <defs>
    <linearGradient id="overview-bg" x1="0" x2="1" y1="0" y2="1">
      <stop offset="0" stop-color="#07111f"/>
      <stop offset="0.48" stop-color="#0b1628"/>
      <stop offset="1" stop-color="#0e2037"/>
    </linearGradient>
    <linearGradient id="overview-panel" x1="0" x2="1" y1="0" y2="1">
      <stop offset="0" stop-color="#172a43"/>
      <stop offset="1" stop-color="#0f1d31"/>
    </linearGradient>
    <linearGradient id="overview-accent" x1="0" x2="1" y1="0" y2="0">
      <stop offset="0" stop-color="#2dd4ff"/>
      <stop offset="1" stop-color="#45e6a8"/>
    </linearGradient>
    <linearGradient id="overview-accent-soft" x1="0" x2="1" y1="0" y2="1">
      <stop offset="0" stop-color="#2dd4ff" stop-opacity="0.22"/>
      <stop offset="1" stop-color="#45e6a8" stop-opacity="0.08"/>
    </linearGradient>
    <radialGradient id="overview-glow-a" cx="26%" cy="18%" r="52%">
      <stop offset="0" stop-color="#2dd4ff" stop-opacity="0.28"/>
      <stop offset="1" stop-color="#2dd4ff" stop-opacity="0"/>
    </radialGradient>
    <radialGradient id="overview-glow-b" cx="82%" cy="72%" r="48%">
      <stop offset="0" stop-color="#45e6a8" stop-opacity="0.22"/>
      <stop offset="1" stop-color="#45e6a8" stop-opacity="0"/>
    </radialGradient>
    <filter id="overview-shadow" x="-20%" y="-20%" width="140%" height="150%">
      <feDropShadow dx="0" dy="18" stdDeviation="18" flood-color="#000814" flood-opacity="0.42"/>
    </filter>
    <filter id="overview-soft-shadow" x="-20%" y="-20%" width="140%" height="150%">
      <feDropShadow dx="0" dy="10" stdDeviation="9" flood-color="#000814" flood-opacity="0.32"/>
    </filter>
    <pattern id="overview-grid" width="46" height="46" patternUnits="userSpaceOnUse">
      <path d="M46 0H0V46" fill="none" stroke="#2b4564" stroke-opacity="0.22" stroke-width="1"/>
    </pattern>
    <style>
      .label { font-family: Inter, Segoe UI, Arial, sans-serif; letter-spacing: 0; }
      .mono { font-family: Cascadia Mono, Consolas, monospace; letter-spacing: 0; }
    </style>
  </defs>
  <rect width="1400" height="850" rx="34" fill="url(#overview-bg)"/>
  <rect width="1400" height="850" rx="34" fill="url(#overview-grid)" opacity="0.68"/>
  <rect width="1400" height="850" rx="34" fill="url(#overview-glow-a)"/>
  <rect width="1400" height="850" rx="34" fill="url(#overview-glow-b)"/>
  <path d="M0 758C230 700 375 808 580 762C845 702 1004 824 1400 734" fill="none" stroke="url(#overview-accent)" stroke-width="2" stroke-opacity="0.38"/>
  <g class="label">
  <text x="80" y="96" fill="#f7fbff" font-size="46" font-weight="800" text-anchor="start" >Project Overview</text>
  <text x="82" y="136" fill="#9fb4ca" font-size="21" font-weight="500" text-anchor="start" >A commercial-demo backend prepared for GitHub review and buyer inspection.</text>
  <rect x="1042" y="70" width="278" height="48" rx="24" fill="#0f2338" stroke="url(#overview-accent)" stroke-opacity="0.58"/>
  <text x="1181" y="101" fill="#f7fbff" font-size="17" font-weight="800" text-anchor="middle" class="mono">DARAK BACKEND</text>
  
  <g opacity="1" filter="url(#overview-shadow)">
    <rect x="92" y="190" width="426" height="448" rx="30" fill="#0e2238" stroke="#28445f" stroke-opacity="0.82"/>
    <rect x="92" y="190" width="426" height="5" rx="30" fill="url(#overview-accent)"/>
  </g>
  <text x="138" y="270" fill="#f7fbff" font-size="62" font-weight="900" text-anchor="start" >DARAK</text>
  <text x="140" y="318" fill="#d9e8f7" font-size="29" font-weight="800" text-anchor="start" ><tspan x="140" dy="0" text-anchor="start">Residential Compound</tspan><tspan x="140" dy="36" text-anchor="start">Management Backend</tspan></text>
  <text x="140" y="420" fill="#9fb4ca" font-size="21" font-weight="500" text-anchor="start" ><tspan x="140" dy="0" text-anchor="start">A backend-only ASP.NET Core project</tspan><tspan x="140" dy="32" text-anchor="start">with finance, operations, security,</tspan><tspan x="140" dy="32" text-anchor="start">documentation, Docker, CI, and tests.</tspan></text>
  <path d="M140 540h322" stroke="#34516e" stroke-width="2"/>
  <text x="140" y="590" fill="#45e6a8" font-size="26" font-weight="850" text-anchor="start" >Commercial Demo Ready</text>
  <g opacity="1" filter="url(#overview-soft-shadow)">
    <rect x="580" y="190" width="318" height="76" rx="19" fill="#0f2237" stroke="#28445f" stroke-opacity="0.82"/>
    <rect x="580" y="190" width="318" height="5" rx="19" fill="#2dd4ff"/>
  </g><circle cx="616" cy="229" r="14" fill="#2dd4ff" fill-opacity="0.14" stroke="#2dd4ff" stroke-opacity="0.7"/><text x="644" y="224" fill="#f7fbff" font-size="21" font-weight="800" text-anchor="start" >Backend Only</text><text x="644" y="248" fill="#9fb4ca" font-size="15" font-weight="500" text-anchor="start" >Focused API deliverable</text>
  <g opacity="1" filter="url(#overview-soft-shadow)">
    <rect x="938" y="190" width="318" height="76" rx="19" fill="#0f2237" stroke="#28445f" stroke-opacity="0.82"/>
    <rect x="938" y="190" width="318" height="5" rx="19" fill="#5b8cff"/>
  </g><circle cx="974" cy="229" r="14" fill="#5b8cff" fill-opacity="0.14" stroke="#5b8cff" stroke-opacity="0.7"/><text x="1002" y="224" fill="#f7fbff" font-size="21" font-weight="800" text-anchor="start" >Enterprise Architecture</text><text x="1002" y="248" fill="#9fb4ca" font-size="15" font-weight="500" text-anchor="start" >Layered services and boundaries</text>
  <g opacity="1" filter="url(#overview-soft-shadow)">
    <rect x="580" y="292" width="318" height="76" rx="19" fill="#0f2237" stroke="#28445f" stroke-opacity="0.82"/>
    <rect x="580" y="292" width="318" height="5" rx="19" fill="#45e6a8"/>
  </g><circle cx="616" cy="331" r="14" fill="#45e6a8" fill-opacity="0.14" stroke="#45e6a8" stroke-opacity="0.7"/><text x="644" y="326" fill="#f7fbff" font-size="21" font-weight="800" text-anchor="start" >Large API Surface</text><text x="644" y="350" fill="#9fb4ca" font-size="15" font-weight="500" text-anchor="start" >Residential operations domain</text>
  <g opacity="1" filter="url(#overview-soft-shadow)">
    <rect x="938" y="292" width="318" height="76" rx="19" fill="#0f2237" stroke="#28445f" stroke-opacity="0.82"/>
    <rect x="938" y="292" width="318" height="5" rx="19" fill="#f8bf4c"/>
  </g><circle cx="974" cy="331" r="14" fill="#f8bf4c" fill-opacity="0.14" stroke="#f8bf4c" stroke-opacity="0.7"/><text x="1002" y="326" fill="#f7fbff" font-size="21" font-weight="800" text-anchor="start" >677 Automated Tests</text><text x="1002" y="350" fill="#9fb4ca" font-size="15" font-weight="500" text-anchor="start" >Recorded verification evidence</text>
  <g opacity="1" filter="url(#overview-soft-shadow)">
    <rect x="580" y="394" width="318" height="76" rx="19" fill="#0f2237" stroke="#28445f" stroke-opacity="0.82"/>
    <rect x="580" y="394" width="318" height="5" rx="19" fill="#a78bfa"/>
  </g><circle cx="616" cy="433" r="14" fill="#a78bfa" fill-opacity="0.14" stroke="#a78bfa" stroke-opacity="0.7"/><text x="644" y="428" fill="#f7fbff" font-size="21" font-weight="800" text-anchor="start" >JWT Authentication</text><text x="644" y="452" fill="#9fb4ca" font-size="15" font-weight="500" text-anchor="start" >Secure token workflows</text>
  <g opacity="1" filter="url(#overview-soft-shadow)">
    <rect x="938" y="394" width="318" height="76" rx="19" fill="#0f2237" stroke="#28445f" stroke-opacity="0.82"/>
    <rect x="938" y="394" width="318" height="5" rx="19" fill="#ff6b7f"/>
  </g><circle cx="974" cy="433" r="14" fill="#ff6b7f" fill-opacity="0.14" stroke="#ff6b7f" stroke-opacity="0.7"/><text x="1002" y="428" fill="#f7fbff" font-size="21" font-weight="800" text-anchor="start" >Role-Based Authorization</text><text x="1002" y="452" fill="#9fb4ca" font-size="15" font-weight="500" text-anchor="start" >Scoped responsibilities</text>
  <g opacity="1" filter="url(#overview-soft-shadow)">
    <rect x="580" y="496" width="318" height="76" rx="19" fill="#0f2237" stroke="#28445f" stroke-opacity="0.82"/>
    <rect x="580" y="496" width="318" height="5" rx="19" fill="#5b8cff"/>
  </g><circle cx="616" cy="535" r="14" fill="#5b8cff" fill-opacity="0.14" stroke="#5b8cff" stroke-opacity="0.7"/><text x="644" y="530" fill="#f7fbff" font-size="21" font-weight="800" text-anchor="start" >Docker Support</text><text x="644" y="554" fill="#9fb4ca" font-size="15" font-weight="500" text-anchor="start" >Local infrastructure setup</text>
  <g opacity="1" filter="url(#overview-soft-shadow)">
    <rect x="938" y="496" width="318" height="76" rx="19" fill="#0f2237" stroke="#28445f" stroke-opacity="0.82"/>
    <rect x="938" y="496" width="318" height="5" rx="19" fill="#ff6b7f"/>
  </g><circle cx="974" cy="535" r="14" fill="#ff6b7f" fill-opacity="0.14" stroke="#ff6b7f" stroke-opacity="0.7"/><text x="1002" y="530" fill="#f7fbff" font-size="21" font-weight="800" text-anchor="start" >SQL Server</text><text x="1002" y="554" fill="#9fb4ca" font-size="15" font-weight="500" text-anchor="start" >Relational persistence</text>
  <g opacity="1" filter="url(#overview-soft-shadow)">
    <rect x="580" y="598" width="318" height="76" rx="19" fill="#0f2237" stroke="#28445f" stroke-opacity="0.82"/>
    <rect x="580" y="598" width="318" height="5" rx="19" fill="#45e6a8"/>
  </g><circle cx="616" cy="637" r="14" fill="#45e6a8" fill-opacity="0.14" stroke="#45e6a8" stroke-opacity="0.7"/><text x="644" y="632" fill="#f7fbff" font-size="21" font-weight="800" text-anchor="start" >Entity Framework Core</text><text x="644" y="656" fill="#9fb4ca" font-size="15" font-weight="500" text-anchor="start" >Migrations and DbContext</text>
  <g opacity="1" filter="url(#overview-soft-shadow)">
    <rect x="938" y="598" width="318" height="76" rx="19" fill="#0f2237" stroke="#28445f" stroke-opacity="0.82"/>
    <rect x="938" y="598" width="318" height="5" rx="19" fill="#f8bf4c"/>
  </g><circle cx="974" cy="637" r="14" fill="#f8bf4c" fill-opacity="0.14" stroke="#f8bf4c" stroke-opacity="0.7"/><text x="1002" y="632" fill="#f7fbff" font-size="21" font-weight="800" text-anchor="start" >Swagger</text><text x="1002" y="656" fill="#9fb4ca" font-size="15" font-weight="500" text-anchor="start" >Developer exploration</text></g>
  </svg>