<svg xmlns="http://www.w3.org/2000/svg" width="1400" height="850" viewBox="0 0 1400 850" role="img" aria-labelledby="stack-title stack-desc">
  <title id="stack-title">DARAK technology stack</title>
  <desc id="stack-desc">Technology stack infographic for .NET, ASP.NET Core, EF Core, SQL Server, Docker, Swagger, JWT, xUnit, and GitHub Actions.</desc>
  
  <defs>
    <linearGradient id="stack-bg" x1="0" x2="1" y1="0" y2="1">
      <stop offset="0" stop-color="#07111f"/>
      <stop offset="0.48" stop-color="#0b1628"/>
      <stop offset="1" stop-color="#0e2037"/>
    </linearGradient>
    <linearGradient id="stack-panel" x1="0" x2="1" y1="0" y2="1">
      <stop offset="0" stop-color="#172a43"/>
      <stop offset="1" stop-color="#0f1d31"/>
    </linearGradient>
    <linearGradient id="stack-accent" x1="0" x2="1" y1="0" y2="0">
      <stop offset="0" stop-color="#a78bfa"/>
      <stop offset="1" stop-color="#2dd4ff"/>
    </linearGradient>
    <linearGradient id="stack-accent-soft" x1="0" x2="1" y1="0" y2="1">
      <stop offset="0" stop-color="#a78bfa" stop-opacity="0.22"/>
      <stop offset="1" stop-color="#2dd4ff" stop-opacity="0.08"/>
    </linearGradient>
    <radialGradient id="stack-glow-a" cx="26%" cy="18%" r="52%">
      <stop offset="0" stop-color="#a78bfa" stop-opacity="0.28"/>
      <stop offset="1" stop-color="#a78bfa" stop-opacity="0"/>
    </radialGradient>
    <radialGradient id="stack-glow-b" cx="82%" cy="72%" r="48%">
      <stop offset="0" stop-color="#2dd4ff" stop-opacity="0.22"/>
      <stop offset="1" stop-color="#2dd4ff" stop-opacity="0"/>
    </radialGradient>
    <filter id="stack-shadow" x="-20%" y="-20%" width="140%" height="150%">
      <feDropShadow dx="0" dy="18" stdDeviation="18" flood-color="#000814" flood-opacity="0.42"/>
    </filter>
    <filter id="stack-soft-shadow" x="-20%" y="-20%" width="140%" height="150%">
      <feDropShadow dx="0" dy="10" stdDeviation="9" flood-color="#000814" flood-opacity="0.32"/>
    </filter>
    <pattern id="stack-grid" width="46" height="46" patternUnits="userSpaceOnUse">
      <path d="M46 0H0V46" fill="none" stroke="#2b4564" stroke-opacity="0.22" stroke-width="1"/>
    </pattern>
    <style>
      .label { font-family: Inter, Segoe UI, Arial, sans-serif; letter-spacing: 0; }
      .mono { font-family: Cascadia Mono, Consolas, monospace; letter-spacing: 0; }
    </style>
  </defs>
  <rect width="1400" height="850" rx="34" fill="url(#stack-bg)"/>
  <rect width="1400" height="850" rx="34" fill="url(#stack-grid)" opacity="0.68"/>
  <rect width="1400" height="850" rx="34" fill="url(#stack-glow-a)"/>
  <rect width="1400" height="850" rx="34" fill="url(#stack-glow-b)"/>
  <path d="M0 758C230 700 375 808 580 762C845 702 1004 824 1400 734" fill="none" stroke="url(#stack-accent)" stroke-width="2" stroke-opacity="0.38"/>
  <g class="label">
  <text x="80" y="96" fill="#f7fbff" font-size="46" font-weight="800" text-anchor="start" >Technology Stack</text>
  <text x="82" y="136" fill="#9fb4ca" font-size="21" font-weight="500" text-anchor="start" >Modern Microsoft backend foundations with practical delivery tooling.</text>
  <rect x="1042" y="70" width="278" height="48" rx="24" fill="#0f2338" stroke="url(#stack-accent)" stroke-opacity="0.58"/>
  <text x="1181" y="101" fill="#f7fbff" font-size="17" font-weight="800" text-anchor="middle" class="mono">DARAK BACKEND</text>
  <g opacity="1" filter="url(#stack-soft-shadow)">
    <rect x="104" y="198" width="356" height="132" rx="24" fill="#0f2237" stroke="#28445f" stroke-opacity="0.82"/>
    <rect x="104" y="198" width="356" height="5" rx="24" fill="#a78bfa"/>
  </g><rect x="132" y="230" width="58" height="58" rx="16" fill="#a78bfa" fill-opacity="0.14" stroke="#a78bfa" stroke-opacity="0.7"/><text x="161" y="268" fill="#a78bfa" font-size="21" font-weight="900" text-anchor="middle" class="mono">.N</text><text x="212" y="256" fill="#f7fbff" font-size="24" font-weight="850" text-anchor="start" >.NET 10</text><text x="212" y="288" fill="#9fb4ca" font-size="17" font-weight="500" text-anchor="start" >Runtime and SDK baseline</text>
  <g opacity="1" filter="url(#stack-soft-shadow)">
    <rect x="524" y="198" width="356" height="132" rx="24" fill="#0f2237" stroke="#28445f" stroke-opacity="0.82"/>
    <rect x="524" y="198" width="356" height="5" rx="24" fill="#2dd4ff"/>
  </g><rect x="552" y="230" width="58" height="58" rx="16" fill="#2dd4ff" fill-opacity="0.14" stroke="#2dd4ff" stroke-opacity="0.7"/><text x="581" y="268" fill="#2dd4ff" font-size="21" font-weight="900" text-anchor="middle" class="mono">AS</text><text x="632" y="256" fill="#f7fbff" font-size="24" font-weight="850" text-anchor="start" >ASP.NET Core</text><text x="632" y="288" fill="#9fb4ca" font-size="17" font-weight="500" text-anchor="start" >Backend Web API surface</text>
  <g opacity="1" filter="url(#stack-soft-shadow)">
    <rect x="944" y="198" width="356" height="132" rx="24" fill="#0f2237" stroke="#28445f" stroke-opacity="0.82"/>
    <rect x="944" y="198" width="356" height="5" rx="24" fill="#45e6a8"/>
  </g><rect x="972" y="230" width="58" height="58" rx="16" fill="#45e6a8" fill-opacity="0.14" stroke="#45e6a8" stroke-opacity="0.7"/><text x="1001" y="268" fill="#45e6a8" font-size="21" font-weight="900" text-anchor="middle" class="mono">EN</text><text x="1052" y="256" fill="#f7fbff" font-size="24" font-weight="850" text-anchor="start" >Entity Framework Core</text><text x="1052" y="288" fill="#9fb4ca" font-size="17" font-weight="500" text-anchor="start" >Data access and migrations</text>
  <g opacity="1" filter="url(#stack-soft-shadow)">
    <rect x="104" y="370" width="356" height="132" rx="24" fill="#0f2237" stroke="#28445f" stroke-opacity="0.82"/>
    <rect x="104" y="370" width="356" height="5" rx="24" fill="#ff6b7f"/>
  </g><rect x="132" y="402" width="58" height="58" rx="16" fill="#ff6b7f" fill-opacity="0.14" stroke="#ff6b7f" stroke-opacity="0.7"/><text x="161" y="440" fill="#ff6b7f" font-size="21" font-weight="900" text-anchor="middle" class="mono">SQ</text><text x="212" y="428" fill="#f7fbff" font-size="24" font-weight="850" text-anchor="start" >SQL Server</text><text x="212" y="460" fill="#9fb4ca" font-size="17" font-weight="500" text-anchor="start" >Relational persistence</text>
  <g opacity="1" filter="url(#stack-soft-shadow)">
    <rect x="524" y="370" width="356" height="132" rx="24" fill="#0f2237" stroke="#28445f" stroke-opacity="0.82"/>
    <rect x="524" y="370" width="356" height="5" rx="24" fill="#5b8cff"/>
  </g><rect x="552" y="402" width="58" height="58" rx="16" fill="#5b8cff" fill-opacity="0.14" stroke="#5b8cff" stroke-opacity="0.7"/><text x="581" y="440" fill="#5b8cff" font-size="21" font-weight="900" text-anchor="middle" class="mono">DO</text><text x="632" y="428" fill="#f7fbff" font-size="24" font-weight="850" text-anchor="start" >Docker</text><text x="632" y="460" fill="#9fb4ca" font-size="17" font-weight="500" text-anchor="start" >Local infrastructure support</text>
  <g opacity="1" filter="url(#stack-soft-shadow)">
    <rect x="944" y="370" width="356" height="132" rx="24" fill="#0f2237" stroke="#28445f" stroke-opacity="0.82"/>
    <rect x="944" y="370" width="356" height="5" rx="24" fill="#f8bf4c"/>
  </g><rect x="972" y="402" width="58" height="58" rx="16" fill="#f8bf4c" fill-opacity="0.14" stroke="#f8bf4c" stroke-opacity="0.7"/><text x="1001" y="440" fill="#f8bf4c" font-size="21" font-weight="900" text-anchor="middle" class="mono">SW</text><text x="1052" y="428" fill="#f7fbff" font-size="24" font-weight="850" text-anchor="start" >Swagger</text><text x="1052" y="460" fill="#9fb4ca" font-size="17" font-weight="500" text-anchor="start" >Development API exploration</text>
  <g opacity="1" filter="url(#stack-soft-shadow)">
    <rect x="104" y="542" width="356" height="132" rx="24" fill="#0f2237" stroke="#28445f" stroke-opacity="0.82"/>
    <rect x="104" y="542" width="356" height="5" rx="24" fill="#2dd4ff"/>
  </g><rect x="132" y="574" width="58" height="58" rx="16" fill="#2dd4ff" fill-opacity="0.14" stroke="#2dd4ff" stroke-opacity="0.7"/><text x="161" y="612" fill="#2dd4ff" font-size="21" font-weight="900" text-anchor="middle" class="mono">JW</text><text x="212" y="600" fill="#f7fbff" font-size="24" font-weight="850" text-anchor="start" >JWT</text><text x="212" y="632" fill="#9fb4ca" font-size="17" font-weight="500" text-anchor="start" >Token-based authentication</text>
  <g opacity="1" filter="url(#stack-soft-shadow)">
    <rect x="524" y="542" width="356" height="132" rx="24" fill="#0f2237" stroke="#28445f" stroke-opacity="0.82"/>
    <rect x="524" y="542" width="356" height="5" rx="24" fill="#45e6a8"/>
  </g><rect x="552" y="574" width="58" height="58" rx="16" fill="#45e6a8" fill-opacity="0.14" stroke="#45e6a8" stroke-opacity="0.7"/><text x="581" y="612" fill="#45e6a8" font-size="21" font-weight="900" text-anchor="middle" class="mono">XU</text><text x="632" y="600" fill="#f7fbff" font-size="24" font-weight="850" text-anchor="start" >xUnit</text><text x="632" y="632" fill="#9fb4ca" font-size="17" font-weight="500" text-anchor="start" >Automated test suite</text>
  <g opacity="1" filter="url(#stack-soft-shadow)">
    <rect x="944" y="542" width="356" height="132" rx="24" fill="#0f2237" stroke="#28445f" stroke-opacity="0.82"/>
    <rect x="944" y="542" width="356" height="5" rx="24" fill="#5b8cff"/>
  </g><rect x="972" y="574" width="58" height="58" rx="16" fill="#5b8cff" fill-opacity="0.14" stroke="#5b8cff" stroke-opacity="0.7"/><text x="1001" y="612" fill="#5b8cff" font-size="21" font-weight="900" text-anchor="middle" class="mono">GI</text><text x="1052" y="600" fill="#f7fbff" font-size="24" font-weight="850" text-anchor="start" >GitHub Actions</text><text x="1052" y="632" fill="#9fb4ca" font-size="17" font-weight="500" text-anchor="start" >Continuous integration</text>
  <path d="M162 740h1076" stroke="url(#stack-accent)" stroke-width="4" stroke-linecap="round" stroke-opacity="0.5"/>
  <text x="700" y="790" fill="#f7fbff" font-size="23" font-weight="700" text-anchor="middle" >API-first, database-backed, test-verified, and ready for commercial demonstrations.</text></g>
  </svg>